<svg width="375" height="94" viewBox="0 0 375 94" fill="none" xmlns="http://www.w3.org/2000/svg">
<g clip-path="url(#clip0_1392_45913)">
<path d="M119.961 20.7387C-188.699 -46.0974 -400.324 8.59968 -467.555 44.3027V94.8582H763.146V-70.0898C677.359 -11.9653 428.621 87.5748 119.961 20.7387Z" fill="#BABF2C"/>
<path d="M255.012 101.8C253.284 106.572 252.177 111.251 252.853 116.227C252.893 116.512 252.792 116.982 252.605 117.09C252.419 117.197 251.971 117.09 251.727 116.921C249.645 115.592 248.255 113.641 247.152 111.449C245.749 108.656 245.05 105.649 244.552 102.575C244.466 102.123 244.24 101.71 243.908 101.398C241.638 99.3503 241.016 96.9948 242.077 93.8781C244.146 95.1738 245.483 96.8713 245.527 99.53C247.662 96.8893 249.023 96.0809 251.101 96.1618C251.16 98.9709 249.564 100.776 245.685 102.204C246.377 107.059 247.662 111.635 251.422 115.325C251.477 115.107 251.514 114.886 251.534 114.662C251.345 110.295 252.192 106.129 253.681 102.045C253.884 101.435 253.888 100.774 253.692 100.161C252.713 97.3339 253.2 95.0503 255.465 92.834C256.835 94.929 257.083 97.0734 255.972 99.6557C258.19 98.0345 260.323 98.057 262.664 99.0225C260.733 101.879 258.241 102.777 255.012 101.8Z" fill="#488031"/>
<path d="M258.225 96.3411C256.201 93.6465 257.169 90.0537 259.442 88.3809C261.309 90.7386 260.758 94.3314 258.225 96.3411Z" fill="#488031"/>
<path d="M246.144 95.4837C243.289 94.0601 242.176 90.9928 243.307 87.8828C246.079 89.0437 247.383 92.4097 246.144 95.4837Z" fill="#488031"/>
<path d="M259.551 96.0418C260.319 94.7404 261.561 93.8034 263.004 93.436C264.446 93.0686 265.973 93.3007 267.248 94.0815C265.753 96.7693 262.36 97.6338 259.551 96.0418Z" fill="#488031"/>
<path d="M247.172 94.4702C247.297 91.2839 249.39 89.2001 252.774 88.8184C253.29 91.5286 250.433 94.4612 247.172 94.4702Z" fill="#488031"/>
<path d="M247.066 89.4155C244.651 87.5989 244.11 84.965 245.512 82.2637C247.866 83.6671 248.547 86.7164 247.066 89.4155Z" fill="#488031"/>
<path d="M263.449 84.5664C264.914 87.261 264.376 89.8972 262.042 91.7182C260.458 89.4615 261.071 86.2191 263.449 84.5664Z" fill="#488031"/>
<path d="M248.289 88.6802C248.289 85.7611 250.38 83.6234 253.233 83.5156C253.371 86.2371 251.181 88.5612 248.289 88.6802Z" fill="#488031"/>
<path d="M270.02 88.8124C268.817 91.507 265.981 92.6634 263.414 91.5631C264.387 89.0078 267.036 87.885 270.02 88.8124Z" fill="#488031"/>
<path d="M254.363 78.6487C253.79 81.3432 252.218 82.6905 249.828 82.6074C249.846 80.2385 251.868 78.4443 254.363 78.6487Z" fill="#488031"/>
<path d="M247.943 77.3809C249.761 79.1772 249.972 81.5103 248.492 83.4818C246.44 82.0155 246.583 78.7506 247.943 77.3809Z" fill="#488031"/>
<path d="M267.341 81.3633C268.393 83.7502 267.686 86.0092 265.551 87.2352C264.449 85.1065 265.125 82.8161 267.341 81.3633Z" fill="#488031"/>
<path d="M272.785 85.0267C271.59 87.2183 269.427 87.9458 267.105 86.9511C267.929 84.7595 270.83 83.9354 272.785 85.0267Z" fill="#488031"/>
<path d="M272.32 80.68C272.944 78.6591 274.297 77.7811 276.304 78.0348C276.076 79.8694 274.464 80.9742 272.32 80.68Z" fill="#488031"/>
<path d="M255.481 74.6402C255.006 76.7083 253.724 77.6873 251.703 77.5818C251.828 75.7068 253.328 74.5122 255.481 74.6402Z" fill="#488031"/>
<path d="M252.074 74.1496C251.949 72.0097 252.858 70.7365 254.839 70.1953C255.258 72.0299 254.16 73.6376 252.074 74.1496Z" fill="#488031"/>
<path d="M270.885 79.0059C271.519 80.9976 270.816 82.5829 268.978 83.4362C268.295 81.5926 268.998 79.9085 270.885 79.0059Z" fill="#488031"/>
<path d="M270.562 83.2815C271.852 81.5255 273.235 81.1618 275.196 82.024C274.309 83.7373 272.568 84.2358 270.562 83.2815Z" fill="#488031"/>
<path d="M250.137 78.323C248.881 76.6411 248.923 75.0962 250.271 73.502C251.675 74.847 251.607 76.9712 250.137 78.323Z" fill="#488031"/>
<path d="M189.292 94.7318C189.664 101.329 190.73 107.486 194.067 113.047C194.26 113.365 194.378 113.977 194.211 114.205C194.044 114.432 193.456 114.543 193.08 114.472C189.926 113.998 187.279 112.416 184.851 110.395C181.76 107.818 179.398 104.613 177.24 101.22C176.907 100.728 176.429 100.358 175.875 100.163C172.131 98.9346 170.192 96.4626 169.868 92.1897C172.989 92.6304 175.445 93.9385 176.85 97.0785C178.046 92.8004 179.255 91.114 181.768 90.1045C183.268 93.4154 182.288 96.4131 178.4 100.176C181.694 105.585 185.553 110.346 191.904 112.735C191.859 112.447 191.791 112.163 191.7 111.887C189.252 106.791 188.141 101.384 187.833 95.7313C187.763 94.8974 187.431 94.109 186.887 93.4838C184.282 90.6413 183.7 87.6647 185.266 83.8227C187.963 85.5861 189.35 88.0056 189.342 91.6695C191.156 88.5601 193.705 87.4519 196.982 87.3549C196.139 91.7807 193.63 94.176 189.292 94.7318Z" fill="#488031"/>
<path d="M190.335 86.5263C186.554 84.3978 185.877 79.6075 187.73 76.4074C191.152 78.2193 192.325 82.7875 190.335 86.5263Z" fill="#488031"/>
<path d="M175.526 91.9348C171.404 91.7603 168.518 88.7032 168.28 84.4009C172.169 84.3072 175.435 87.618 175.526 91.9348Z" fill="#488031"/>
<path d="M191.761 85.4653C192.013 83.5079 193.013 81.7323 194.543 80.5273C196.072 79.3224 198.007 78.7863 199.922 79.0364C199.511 83.0304 195.913 85.8648 191.761 85.4653Z" fill="#488031"/>
<path d="M176.233 90.1799C174.76 86.3221 176.189 82.7288 180.021 80.4736C182.015 83.4238 180.108 88.4337 176.233 90.1799Z" fill="#488031"/>
<path d="M173.53 84.228C169.731 83.3522 167.747 80.5057 168.039 76.5459C171.555 76.9629 173.917 80.2288 173.53 84.228Z" fill="#488031"/>
<path d="M190.563 69.735C193.678 72.1616 194.379 75.5846 192.529 78.9938C189.496 77.1513 188.574 72.9672 190.563 69.735Z" fill="#488031"/>
<path d="M174.61 82.7017C173.124 79.2284 174.523 75.5722 177.863 73.9258C179.413 77.0904 177.99 81.0209 174.61 82.7017Z" fill="#488031"/>
<path d="M200.536 71.2916C200.476 75.1382 197.691 78.023 194.076 78.0801C193.933 74.5218 196.513 71.7765 200.536 71.2916Z" fill="#488031"/>
<path d="M176.728 67.5312C177.418 71.0424 176.233 73.4823 173.348 74.655C172.163 71.8269 173.656 68.6158 176.728 67.5312Z" fill="#488031"/>
<path d="M168.451 69.4376C171.529 70.6073 172.967 73.2711 172.21 76.4046C169.023 75.7516 167.53 71.7909 168.451 69.4376Z" fill="#488031"/>
<path d="M193.557 63.8548C196.024 66.1351 196.332 69.1992 194.416 71.794C192.021 69.8479 191.66 66.7627 193.557 63.8548Z" fill="#488031"/>
<path d="M201.9 65.3161C201.594 68.5596 199.391 70.5765 196.122 70.6282C195.987 67.5823 199.019 65.0578 201.9 65.3161Z" fill="#488031"/>
<path d="M199.134 60.3895C198.847 57.653 200.01 55.8884 202.527 55.1221C203.19 57.4264 201.834 59.5988 199.134 60.3895Z" fill="#488031"/>
<path d="M176.023 62.1689C176.511 64.882 175.483 66.7295 173.026 67.6791C172.22 65.3816 173.397 63.1619 176.023 62.1689Z" fill="#488031"/>
<path d="M171.722 63.3943C170.483 60.9147 170.917 58.9159 172.999 57.2178C174.432 59.1774 173.944 61.6748 171.722 63.3943Z" fill="#488031"/>
<path d="M196.572 59.162C198.341 61.1941 198.312 63.4544 196.559 65.4479C194.808 63.6178 194.787 61.24 196.572 59.162Z" fill="#488031"/>
<path d="M198.368 64.4216C199.008 61.6463 200.469 60.4771 203.242 60.4594C203.058 62.9701 201.24 64.4901 198.368 64.4216Z" fill="#488031"/>
<path d="M171.542 69.3883C169.191 68.0556 168.454 66.1952 169.247 63.5807C171.602 64.4342 172.602 66.998 171.542 69.3883Z" fill="#488031"/>
<path d="M216.287 88.6324C214.931 96.7628 212.775 104.249 207.882 110.674C207.6 111.041 207.37 111.784 207.546 112.09C207.723 112.396 208.437 112.615 208.913 112.581C212.889 112.44 216.388 110.853 219.672 108.69C223.856 105.932 227.22 102.29 230.357 98.3879C230.836 97.8246 231.48 97.4327 232.193 97.2694C237.003 96.2764 239.743 93.4849 240.725 88.2308C236.793 88.3353 233.57 89.6099 231.401 93.3056C230.498 87.8299 229.227 85.5668 226.247 83.9587C223.937 87.8528 224.747 91.7101 229.06 96.9287C224.24 103.17 218.809 108.53 210.607 110.593C210.702 110.242 210.825 109.9 210.975 109.57C214.702 103.596 216.814 97.0463 217.961 90.0788C218.161 89.0544 218.679 88.1235 219.439 87.4251C223.055 84.2683 224.181 80.6586 222.759 75.6712C219.175 77.4765 217.126 80.2811 216.64 84.8269C214.811 80.713 211.8 78.9775 207.748 78.3929C208.194 84.002 210.981 87.3284 216.287 88.6324Z" fill="#488031"/>
<path d="M216.101 78.3079C221.079 76.2033 222.568 70.3574 220.703 66.1255C216.214 67.8884 214.14 73.3885 216.101 78.3079Z" fill="#488031"/>
<path d="M233.74 87.1136C238.876 87.481 242.87 84.0979 243.748 78.7951C238.937 78.128 234.437 81.772 233.74 87.1136Z" fill="#488031"/>
<path d="M214.475 76.7876C214.428 74.324 213.428 71.9799 211.694 70.2686C209.96 68.5573 207.633 67.6184 205.224 67.6573C205.193 72.6696 209.27 76.6949 214.475 76.7876Z" fill="#488031"/>
<path d="M233.102 84.8362C235.452 80.2596 234.166 75.6001 229.718 72.2599C226.845 75.6368 228.531 82.1211 233.102 84.8362Z" fill="#488031"/>
<path d="M237.259 77.8347C242.09 77.2865 244.936 74.0368 245.111 69.0838C240.693 69.1029 237.321 72.8193 237.259 77.8347Z" fill="#488031"/>
<path d="M218.097 57.4461C213.905 60.0148 212.57 64.1612 214.404 68.6521C218.415 66.7963 220.125 61.737 218.097 57.4461Z" fill="#488031"/>
<path d="M236.129 75.7889C238.443 71.6912 237.202 66.9579 233.283 64.4426C230.932 68.1482 232.163 73.2251 236.129 75.7889Z" fill="#488031"/>
<path d="M205.51 57.9644C205.064 62.7442 208.127 66.717 212.603 67.2999C213.263 62.9066 210.435 59.1358 205.51 57.9644Z" fill="#488031"/>
<path d="M235.555 56.6725C234.224 60.93 235.363 64.1242 238.783 65.9876C240.636 62.6476 239.219 58.453 235.555 56.6725Z" fill="#488031"/>
<path d="M245.568 60.2107C241.591 61.2256 239.446 64.3259 239.961 68.32C244.003 67.9614 246.391 63.26 245.568 60.2107Z" fill="#488031"/>
<path d="M215.176 49.7267C211.807 52.2057 211.009 55.9627 213.034 59.4526C216.269 57.378 217.135 53.6023 215.176 49.7267Z" fill="#488031"/>
<path d="M204.636 50.36C204.576 54.4264 207.035 57.2403 211.083 57.7675C211.664 54.0086 208.244 50.4478 204.636 50.36Z" fill="#488031"/>
<path d="M208.733 44.6402C209.459 41.2865 208.256 38.933 205.237 37.6258C204.104 40.3904 205.491 43.277 208.733 44.6402Z" fill="#488031"/>
<path d="M237.159 50.1213C236.185 53.4174 237.21 55.8545 240.13 57.3807C241.44 54.6449 240.281 51.7251 237.159 50.1213Z" fill="#488031"/>
<path d="M242.322 52.2504C244.194 49.3502 243.927 46.8095 241.575 44.4084C239.532 46.636 239.799 49.8029 242.322 52.2504Z" fill="#488031"/>
<path d="M212.075 43.4801C209.605 45.75 209.335 48.5578 211.239 51.2788C213.659 49.2569 214.007 46.3105 212.075 43.4801Z" fill="#488031"/>
<path d="M209.133 49.7512C208.715 46.2181 207.061 44.5609 203.625 44.1462C203.512 47.2864 205.562 49.4294 209.133 49.7512Z" fill="#488031"/>
<path d="M241.736 59.712C244.832 58.392 245.998 56.1888 245.369 52.8334C242.333 53.5586 240.745 56.5969 241.736 59.712Z" fill="#488031"/>
<path d="M141.931 101.296C138.873 105.065 135.591 108.261 131.209 110.079C130.957 110.182 130.623 110.494 130.625 110.705C130.627 110.916 130.931 111.246 131.185 111.373C133.271 112.507 135.531 112.753 137.848 112.638C140.8 112.49 143.587 111.638 146.333 110.583C146.744 110.439 147.188 110.433 147.602 110.566C150.364 111.515 152.584 110.912 154.614 108.508C152.562 107.368 150.535 107.045 148.346 108.287C149.472 105.197 149.475 103.648 148.41 101.916C146.091 103.217 145.388 105.447 146.09 109.439C141.799 111.186 137.451 112.293 132.634 110.865C132.784 110.713 132.947 110.574 133.12 110.45C136.771 108.51 139.759 105.783 142.372 102.548C142.772 102.082 143.309 101.761 143.902 101.632C146.678 101.106 148.305 99.592 149.023 96.5958C146.655 96.4361 144.788 97.2566 143.217 99.4463C143.472 96.7757 142.427 94.9692 140.513 93.4387C139.114 96.4584 139.581 99.0149 141.931 101.296Z" fill="#488031"/>
<path d="M144.831 95.9306C148.002 96.3595 150.465 93.8052 150.735 91.063C147.914 90.6068 145.251 92.8055 144.831 95.9306Z" fill="#488031"/>
<path d="M144.436 94.6582C145.127 93.377 145.294 91.8681 144.899 90.4617C144.504 89.0554 143.58 87.8663 142.33 87.1548C140.858 89.7229 141.787 93.0305 144.436 94.6582Z" fill="#488031"/>
<path d="M151.916 85.8102C149.014 85.8586 147.124 87.5857 146.763 90.4516C149.365 90.715 151.713 88.6325 151.916 85.8102Z" fill="#488031"/>
<path d="M155.86 100.716C158.24 99.311 158.976 96.5006 157.691 94.0175C155.406 95.2092 154.565 98.1936 155.86 100.716Z" fill="#488031"/>
<path d="M145.297 82.2557C143.679 84.578 144.101 87.5508 146.233 89.2092C147.848 87.1504 147.489 84.3529 145.297 82.2557Z" fill="#488031"/>
<path d="M161.117 90.7091C159.196 92.4943 158.855 94.4828 160.072 96.4791C161.995 95.3241 162.484 92.737 161.117 90.7091Z" fill="#488031"/>
<path d="M165.237 95.5698C162.898 94.8845 160.894 95.8276 159.999 98.0378C162.182 99.0803 164.775 97.3875 165.237 95.5698Z" fill="#488031"/>
<path d="M152.658 80.9535C150.206 81.2057 148.705 82.8954 148.733 85.3046C150.998 85.2198 152.54 83.5411 152.658 80.9535Z" fill="#488031"/>
<path d="M147.052 78.0804C145.84 80.1532 146.288 82.3468 148.216 83.8464C149.606 82.0899 148.882 79.2209 147.052 78.0804Z" fill="#488031"/>
<path d="M150.821 76.3813C152.168 74.8773 152.233 73.3019 151.06 71.7133C149.674 72.7908 149.549 74.6962 150.821 76.3813Z" fill="#488031"/>
<path d="M163.846 87.8322C162.389 89.2317 162.208 90.7958 163.266 92.4669C164.735 91.458 164.987 89.6048 163.846 87.8322Z" fill="#488031"/>
<path d="M165.884 90.4928C167.689 89.5697 168.289 88.1822 167.777 86.2336C166.08 86.7589 165.298 88.4684 165.884 90.4928Z" fill="#488031"/>
<path d="M152.874 76.8002C150.945 77.2178 149.99 78.5796 150.179 80.5568C152.011 80.2517 153.046 78.8423 152.874 76.8002Z" fill="#488031"/>
<path d="M149.543 79.1312C150.355 77.1875 149.985 75.8334 148.339 74.5769C147.369 76.1576 147.801 77.8816 149.543 79.1312Z" fill="#488031"/>
<path d="M163.413 94.1512C165.388 94.4124 166.628 93.6334 167.278 91.717C165.507 91.1683 163.808 92.2485 163.413 94.1512Z" fill="#488031"/>
<path d="M128.545 93.4102C127.852 99.4813 127.859 105.265 130.029 110.876C130.155 111.198 130.167 111.775 129.979 111.955C129.791 112.135 129.238 112.139 128.907 112.013C126.108 111.066 123.944 109.191 122.049 106.953C119.635 104.1 117.986 100.793 116.55 97.3496C116.324 96.8467 115.946 96.4309 115.473 96.1629C112.254 94.4314 110.875 91.8624 111.248 87.9167C114.022 88.8287 116.054 90.4221 116.843 93.5126C118.602 89.8109 119.967 88.4723 122.415 87.9638C123.263 91.2255 121.901 93.796 117.77 96.5883C119.925 102.054 122.695 107.023 128.108 110.238C128.112 109.969 128.094 109.699 128.054 109.433C126.622 104.39 126.455 99.2817 127.059 94.0821C127.126 93.311 126.947 92.5384 126.549 91.8799C124.621 88.8643 124.557 86.0573 126.584 82.8134C128.766 84.8611 129.65 87.2921 129.07 90.6287C131.209 88.0928 133.704 87.5002 136.705 87.948C135.245 91.842 132.584 93.6136 128.545 93.4102Z" fill="#488031"/>
<path d="M130.78 86.1057C127.668 83.5481 127.802 79.0735 129.99 76.4613C132.824 78.6717 133.177 83.0252 130.78 86.1057Z" fill="#488031"/>
<path d="M116.442 88.6098C112.714 87.7765 110.563 84.5193 111.02 80.561C114.578 81.1119 117.035 84.6622 116.442 88.6098Z" fill="#488031"/>
<path d="M132.247 85.3732C132.783 83.6312 133.972 82.1773 135.554 81.3298C137.136 80.4824 138.982 80.3104 140.688 80.8516C139.688 84.4229 135.968 86.4165 132.247 85.3732Z" fill="#488031"/>
<path d="M117.362 87.1263C116.623 83.3708 118.488 80.3313 122.332 78.9037C123.687 81.9175 121.166 86.1696 117.362 87.1263Z" fill="#488031"/>
<path d="M115.829 81.2617C112.505 79.8422 111.144 76.9246 112.03 73.365C115.167 74.32 116.808 77.6817 115.829 81.2617Z" fill="#488031"/>
<path d="M133.613 70.8447C136.07 73.5649 136.174 76.798 133.955 79.601C131.48 77.4264 131.295 73.4639 133.613 70.8447Z" fill="#488031"/>
<path d="M117.051 80.0478C116.24 76.6405 118.087 73.5387 121.387 72.5851C122.304 75.7216 120.394 79.0697 117.051 80.0478Z" fill="#488031"/>
<path d="M142.46 73.8948C141.803 77.3892 138.815 79.5617 135.513 79.0223C135.939 75.7573 138.719 73.6783 142.46 73.8948Z" fill="#488031"/>
<path d="M121.36 66.5737C121.439 69.8852 119.978 71.9141 117.166 72.5104C116.529 69.7402 118.392 67.0591 121.36 66.5737Z" fill="#488031"/>
<path d="M113.518 66.9572C116.139 68.5264 117.032 71.1884 115.852 73.9191C113.051 72.8028 112.311 68.9505 113.518 66.9572Z" fill="#488031"/>
<path d="M137.266 65.9783C139.157 68.4592 138.958 71.301 136.807 73.3515C134.929 71.1867 135.083 68.317 137.266 65.9783Z" fill="#488031"/>
<path d="M144.633 68.6739C143.847 71.5787 141.524 73.0555 138.538 72.568C138.891 69.7709 142.049 67.9673 144.633 68.6739Z" fill="#488031"/>
<path d="M142.887 63.735C143.054 61.1951 144.389 59.7778 146.803 59.4915C147.045 61.6991 145.47 63.4564 142.887 63.735Z" fill="#488031"/>
<path d="M121.552 61.5731C121.573 64.1247 120.347 65.6396 117.96 66.1026C117.585 63.8778 119.005 62.0482 121.552 61.5731Z" fill="#488031"/>
<path d="M117.443 61.9853C116.703 59.5238 117.411 57.7739 119.573 56.5675C120.571 58.5871 119.736 60.7824 117.443 61.9853Z" fill="#488031"/>
<path d="M140.746 62.1969C142.04 64.3376 141.659 66.3919 139.751 67.9213C138.442 65.9676 138.795 63.798 140.746 62.1969Z" fill="#488031"/>
<path d="M141.559 67.2815C142.577 64.8578 144.091 64.0318 146.619 64.4692C146.059 66.7265 144.165 67.8136 141.559 67.2815Z" fill="#488031"/>
<path d="M116.343 67.4196C114.41 65.821 114.03 64.0056 115.161 61.7535C117.172 62.9163 117.682 65.4155 116.343 67.4196Z" fill="#488031"/>
<path d="M347.298 99.3226C346.96 103.037 347.044 106.566 348.447 109.959C348.528 110.153 348.543 110.505 348.431 110.617C348.319 110.73 347.981 110.741 347.778 110.669C346.056 110.131 344.71 109.019 343.522 107.681C342.01 105.975 340.957 103.981 340.034 101.901C339.889 101.597 339.653 101.349 339.36 101.192C337.372 100.183 336.494 98.635 336.667 96.222C338.373 96.7382 339.635 97.6809 340.159 99.5552C341.181 97.2709 341.995 96.4343 343.482 96.0884C344.045 98.0663 343.249 99.6546 340.768 101.418C342.159 104.722 343.918 107.714 347.265 109.597C347.264 109.433 347.249 109.268 347.221 109.106C346.277 106.05 346.104 102.936 346.401 99.7541C346.431 99.2827 346.311 98.8139 346.059 98.4178C344.841 96.6058 344.762 94.8939 345.954 92.885C347.314 94.1028 347.887 95.5734 347.58 97.6177C348.85 96.0392 350.364 95.6414 352.201 95.871C351.364 98.2683 349.766 99.388 347.298 99.3226Z" fill="#488031"/>
<path d="M348.56 94.8313C346.626 93.3159 346.645 90.5836 347.944 88.9579C349.704 90.2654 349.98 92.9168 348.56 94.8313Z" fill="#488031"/>
<path d="M339.846 96.5701C337.56 96.1158 336.202 94.1596 336.426 91.7377C338.604 92.0221 340.153 94.1528 339.846 96.5701Z" fill="#488031"/>
<path d="M349.445 94.3625C349.748 93.2918 350.453 92.3873 351.407 91.8472C352.36 91.3071 353.484 91.1753 354.532 91.4808C353.972 93.6745 351.73 94.945 349.445 94.3625Z" fill="#488031"/>
<path d="M340.385 95.651C339.882 93.3702 340.978 91.4884 343.304 90.5615C344.172 92.3807 342.693 95.0119 340.385 95.651Z" fill="#488031"/>
<path d="M339.374 92.094C337.326 91.2762 336.455 89.5157 336.946 87.3308C338.873 87.8679 339.921 89.8953 339.374 92.094Z" fill="#488031"/>
<path d="M350.075 85.4804C351.613 87.1045 351.721 89.0758 350.406 90.8184C348.866 89.5275 348.698 87.1123 350.075 85.4804Z" fill="#488031"/>
<path d="M340.099 91.3353C339.557 89.268 340.641 87.3484 342.642 86.7186C343.245 88.6191 342.125 90.6898 340.099 91.3353Z" fill="#488031"/>
<path d="M355.515 87.2121C355.163 89.3538 353.37 90.7229 351.348 90.4418C351.562 88.4434 353.23 87.1344 355.515 87.2121Z" fill="#488031"/>
<path d="M342.539 83.0513C342.633 85.0707 341.769 86.33 340.062 86.7347C339.635 85.0536 340.734 83.3906 342.539 83.0513Z" fill="#488031"/>
<path d="M337.758 83.3999C339.379 84.3193 339.961 85.9306 339.279 87.6141C337.554 86.9736 337.049 84.6337 337.758 83.3999Z" fill="#488031"/>
<path d="M352.237 82.4581C353.425 83.9444 353.344 85.6814 352.059 86.9638C350.884 85.6702 350.938 83.9169 352.237 82.4581Z" fill="#488031"/>
<path d="M356.771 83.9957C356.332 85.7796 354.935 86.7145 353.106 86.4605C353.283 84.7486 355.184 83.6021 356.771 83.9957Z" fill="#488031"/>
<path d="M355.636 81.007C355.702 79.4548 356.497 78.5705 357.966 78.3608C358.145 79.7043 357.208 80.7995 355.636 81.007Z" fill="#488031"/>
<path d="M342.587 79.9983C342.635 81.555 341.908 82.4972 340.458 82.8144C340.198 81.4623 341.039 80.3253 342.587 79.9983Z" fill="#488031"/>
<path d="M340.086 80.3099C339.6 78.8187 340.007 77.7406 341.31 76.9731C341.947 78.1909 341.468 79.5425 340.086 80.3099Z" fill="#488031"/>
<path d="M354.308 80.0981C355.127 81.3855 354.924 82.6446 353.781 83.6055C352.955 82.4324 353.14 81.1034 354.308 80.0981Z" fill="#488031"/>
<path d="M354.875 83.1901C355.462 81.6964 356.374 81.1704 357.923 81.4005C357.613 82.786 356.472 83.4769 354.875 83.1901Z" fill="#488031"/>
<path d="M339.489 83.6398C338.287 82.6925 338.03 81.5903 338.689 80.1996C339.933 80.8799 340.279 82.3975 339.489 83.6398Z" fill="#488031"/>
<path d="M367.713 95.2187C365.953 101.06 363.667 106.35 359.467 110.591C359.226 110.833 358.987 111.356 359.088 111.598C359.189 111.84 359.693 112.072 360.046 112.094C362.981 112.38 365.701 111.557 368.318 110.29C371.651 108.674 374.465 106.328 377.136 103.768C377.542 103.401 378.051 103.176 378.59 103.126C382.219 102.869 384.494 101.086 385.708 97.3217C382.81 97.0127 380.322 97.6331 378.381 100.136C378.231 96.0235 377.51 94.2358 375.471 92.7616C373.408 95.3965 373.641 98.3106 376.32 102.569C372.193 106.682 367.699 110.088 361.478 110.799C361.58 110.55 361.703 110.311 361.844 110.083C365.144 106.059 367.31 101.453 368.807 96.4459C369.05 95.7127 369.519 95.0795 370.143 94.6409C373.096 92.6759 374.262 90.1338 373.686 86.3294C370.882 87.3043 369.114 89.1642 368.329 92.4568C367.372 89.2543 365.322 87.6835 362.399 86.8563C362.2 91.0219 363.936 93.7397 367.713 95.2187Z" fill="#488031"/>
<path d="M368.546 87.6132C372.402 86.5552 374.045 82.4054 373.072 79.1127C369.607 79.9675 367.567 83.8057 368.546 87.6132Z" fill="#488031"/>
<path d="M367.494 86.3372C367.69 84.5222 367.175 82.7015 366.062 81.2738C364.948 79.8461 363.327 78.9278 361.552 78.7199C361.059 82.4002 363.678 85.7583 367.494 86.3372Z" fill="#488031"/>
<path d="M380.428 94.0799C382.584 90.9475 382.077 87.3973 379.122 84.5062C376.693 86.7058 377.324 91.6362 380.428 94.0799Z" fill="#488031"/>
<path d="M371.973 72.4792C368.651 73.9553 367.281 76.8714 368.207 80.3514C371.329 79.3814 373.061 75.8313 371.973 72.4792Z" fill="#488031"/>
<path d="M362.676 71.6246C361.9 75.0932 363.778 78.3132 367.012 79.1808C367.909 76.0171 366.185 72.9687 362.676 71.6246Z" fill="#488031"/>
<path d="M370.551 66.5215C367.843 68.0126 366.904 70.6951 368.064 73.4583C370.636 72.2513 371.627 69.5617 370.551 66.5215Z" fill="#488031"/>
<path d="M362.745 65.9514C362.319 68.9337 363.862 71.2428 366.787 72.0274C367.567 69.3222 365.388 66.37 362.745 65.9514Z" fill="#488031"/>
<path d="M366.291 62.1514C367.14 59.7582 366.477 57.9107 364.381 56.6539C363.288 58.5742 364.037 60.8315 366.291 62.1514Z" fill="#488031"/>
<path d="M368.856 61.626C366.828 63.0517 366.366 65.0885 367.51 67.2748C369.478 66.0265 370.011 63.8956 368.856 61.626Z" fill="#488031"/>
<path d="M366.106 65.9448C366.131 63.3075 365.071 61.9274 362.585 61.2854C362.207 63.582 363.512 65.3578 366.106 65.9448Z" fill="#488031"/>
<path d="M322.607 98.2209C322.189 102.804 322.294 107.158 324.024 111.343C324.124 111.583 324.143 112.017 324.005 112.156C323.866 112.295 323.45 112.308 323.199 112.219C321.075 111.556 319.414 110.184 317.949 108.533C316.083 106.428 314.784 103.968 313.645 101.402C313.466 101.027 313.174 100.721 312.813 100.528C310.36 99.282 309.278 97.3726 309.491 94.3955C311.595 95.0323 313.152 96.1954 313.8 98.5079C315.06 95.6896 316.065 94.6574 317.898 94.2307C318.593 96.6709 317.612 98.6305 314.55 100.807C316.266 104.883 318.437 108.574 322.566 110.897C322.565 110.694 322.547 110.492 322.513 110.292C321.348 106.521 321.134 102.679 321.5 98.7533C321.537 98.1716 321.389 97.5933 321.078 97.1046C319.575 94.869 319.478 92.7569 320.949 90.2785C322.626 91.7809 323.334 93.5952 322.955 96.1175C324.521 94.17 326.39 93.6791 328.656 93.9624C327.624 96.9201 325.651 98.3016 322.607 98.2209Z" fill="#488031"/>
<path d="M324.166 92.683C321.78 90.8134 321.804 87.4424 323.407 85.4366C325.578 87.0498 325.919 90.3209 324.166 92.683Z" fill="#488031"/>
<path d="M313.413 94.8245C310.592 94.264 308.917 91.8505 309.193 88.8625C311.881 89.2134 313.791 91.8421 313.413 94.8245Z" fill="#488031"/>
<path d="M325.257 92.1053C325.63 90.7843 326.5 89.6684 327.677 89.002C328.853 88.3357 330.24 88.1731 331.534 88.5499C330.842 91.2564 328.076 92.824 325.257 92.1053Z" fill="#488031"/>
<path d="M314.079 93.6922C313.459 90.8782 314.811 88.5565 317.68 87.4128C318.752 89.6574 316.927 92.9037 314.079 93.6922Z" fill="#488031"/>
<path d="M312.83 89.3037C310.303 88.2948 309.228 86.1227 309.833 83.4271C312.212 84.0897 313.505 86.5911 312.83 89.3037Z" fill="#488031"/>
<path d="M326.036 81.1424C327.933 83.1461 328.066 85.5783 326.443 87.7283C324.543 86.1355 324.336 83.1558 326.036 81.1424Z" fill="#488031"/>
<path d="M313.726 88.366C313.057 85.8155 314.394 83.4472 316.862 82.6701C317.606 85.0149 316.225 87.5697 313.726 88.366Z" fill="#488031"/>
<path d="M332.748 83.2822C332.314 85.9246 330.101 87.6137 327.606 87.2669C327.871 84.8013 329.928 83.1863 332.748 83.2822Z" fill="#488031"/>
<path d="M316.736 78.147C316.852 80.6386 315.786 82.1922 313.68 82.6916C313.153 80.6175 314.509 78.5657 316.736 78.147Z" fill="#488031"/>
<path d="M310.839 78.5768C312.839 79.7111 313.557 81.6991 312.715 83.7761C310.587 82.9859 309.965 80.099 310.839 78.5768Z" fill="#488031"/>
<path d="M328.702 77.4139C330.167 79.2477 330.067 81.3907 328.482 82.9729C327.032 81.3769 327.098 79.2137 328.702 77.4139Z" fill="#488031"/>
<path d="M334.295 79.3117C333.753 81.5126 332.029 82.6661 329.773 82.3526C329.991 80.2406 332.337 78.8261 334.295 79.3117Z" fill="#488031"/>
<path d="M332.897 75.6239C332.979 73.7088 333.96 72.6178 335.772 72.359C335.992 74.0166 334.837 75.3678 332.897 75.6239Z" fill="#488031"/>
<path d="M316.795 74.3794C316.854 76.2999 315.957 77.4623 314.168 77.8538C313.848 76.1855 314.885 74.7827 316.795 74.3794Z" fill="#488031"/>
<path d="M313.712 74.7648C313.113 72.925 313.616 71.5949 315.223 70.6479C316.009 72.1504 315.418 73.8181 313.712 74.7648Z" fill="#488031"/>
<path d="M331.256 74.504C332.267 76.0923 332.016 77.6457 330.605 78.8313C329.586 77.384 329.814 75.7443 331.256 74.504Z" fill="#488031"/>
<path d="M331.957 78.3181C332.681 76.4753 333.807 75.8262 335.718 76.1102C335.335 77.8195 333.927 78.672 331.957 78.3181Z" fill="#488031"/>
<path d="M312.974 78.8732C311.491 77.7044 311.174 76.3446 311.987 74.6288C313.521 75.4681 313.948 77.3404 312.974 78.8732Z" fill="#488031"/>
<path d="M283.902 93.4351C282.04 99.2432 279.66 104.49 275.387 108.653C275.142 108.891 274.893 109.409 274.99 109.653C275.087 109.897 275.587 110.138 275.939 110.166C278.869 110.507 281.603 109.734 284.241 108.515C287.603 106.961 290.458 104.667 293.173 102.157C293.585 101.797 294.099 101.582 294.639 101.542C298.271 101.351 300.577 99.611 301.858 95.8693C298.965 95.507 296.467 96.0814 294.482 98.5481C294.405 94.4336 293.715 92.6329 291.702 91.1214C289.593 93.7178 289.775 96.6357 292.378 100.942C288.179 104.979 283.626 108.301 277.394 108.898C277.501 108.651 277.627 108.414 277.772 108.189C281.142 104.226 283.39 99.6613 284.975 94.6822C285.231 93.9536 285.71 93.3292 286.342 92.9021C289.329 90.9919 290.54 88.4717 290.031 84.6573C287.211 85.5803 285.41 87.4074 284.567 90.685C283.666 87.4654 281.644 85.857 278.737 84.9761C278.465 89.1374 280.152 91.8868 283.902 93.4351Z" fill="#488031"/>
<path d="M284.87 85.8454C288.743 84.8586 290.459 80.7397 289.544 77.4296C286.065 78.2205 283.957 82.0204 284.87 85.8454Z" fill="#488031"/>
<path d="M296.858 94.27C300.584 95.1128 303.873 93.079 305.082 89.29C301.627 88.2639 297.94 90.4326 296.858 94.27Z" fill="#488031"/>
<path d="M283.842 84.5502C284.07 82.7391 283.588 80.9093 282.499 79.4613C281.411 78.0133 279.806 77.0653 278.036 76.8247C277.478 80.4953 280.037 83.9011 283.842 84.5502Z" fill="#488031"/>
<path d="M296.634 92.5301C298.846 89.4379 298.401 85.8789 295.497 82.9338C293.03 85.0883 293.574 90.0295 296.634 92.5301Z" fill="#488031"/>
<path d="M300.426 87.862C304.026 87.9996 306.459 85.9354 307.116 82.3243C303.876 81.8452 301.007 84.1926 300.426 87.862Z" fill="#488031"/>
<path d="M288.562 70.7772C285.215 72.1919 283.794 75.0822 284.658 78.5787C287.797 77.6664 289.591 74.1488 288.562 70.7772Z" fill="#488031"/>
<path d="M299.819 86.2359C301.952 83.4906 301.549 79.8827 298.945 77.6014C296.825 80.055 297.186 83.9138 299.819 86.2359Z" fill="#488031"/>
<path d="M279.279 69.7511C278.441 73.2048 280.262 76.4589 283.48 77.3859C284.433 74.2394 282.763 71.1596 279.279 69.7511Z" fill="#488031"/>
<path d="M301.438 72.1569C300.008 75.129 300.502 77.5976 302.81 79.3453C304.525 77.104 303.934 73.8712 301.438 72.1569Z" fill="#488031"/>
<path d="M308.399 75.8715C305.376 76.1714 303.472 78.2044 303.423 81.1896C306.424 81.378 308.676 78.1985 308.399 75.8715Z" fill="#488031"/>
<path d="M287.246 64.7937C284.512 66.2346 283.526 68.8994 284.637 71.6836C287.23 70.5241 288.268 67.8532 287.246 64.7937Z" fill="#488031"/>
<path d="M279.449 64.0803C278.971 67.0542 280.473 69.3914 283.383 70.2298C284.211 67.5394 282.085 64.5475 279.449 64.0803Z" fill="#488031"/>
<path d="M283.063 60.3461C283.953 57.9689 283.323 56.1095 281.25 54.8143C280.123 56.7141 280.832 58.9848 283.063 60.3461Z" fill="#488031"/>
<path d="M303.316 67.5364C302.25 69.8438 302.741 71.7446 304.718 73.1892C305.971 71.3303 305.433 69.0607 303.316 67.5364Z" fill="#488031"/>
<path d="M306.872 69.6749C308.554 67.7581 308.63 65.866 307.162 63.8434C305.427 65.2481 305.285 67.5992 306.872 69.6749Z" fill="#488031"/>
<path d="M285.639 59.8676C283.586 61.2557 283.088 63.2836 284.193 65.4907C286.183 64.2788 286.753 62.158 285.639 59.8676Z" fill="#488031"/>
<path d="M282.812 64.135C282.883 61.4985 281.848 60.0992 279.373 59.4115C278.955 61.7007 280.229 63.5003 282.812 64.135Z" fill="#488031"/>
<path d="M305.647 75.0781C308.058 74.4563 309.148 72.9716 309.045 70.4418C306.742 70.6344 305.253 72.6841 305.647 75.0781Z" fill="#488031"/>
<path d="M77.5452 90.3448C77.0557 98.5774 75.7034 106.258 71.5167 113.185C71.2757 113.582 71.1252 114.345 71.3331 114.63C71.541 114.915 72.2744 115.054 72.7437 114.968C76.6818 114.389 79.9919 112.424 83.0291 109.912C86.8974 106.707 89.8568 102.715 92.5628 98.4899C92.9803 97.8768 93.5784 97.4162 94.2699 97.1752C98.9479 95.6569 101.377 92.5792 101.797 87.2475C97.9004 87.7853 94.8308 89.4084 93.0647 93.322C91.5883 87.978 90.0861 85.8684 86.9532 84.5988C85.0681 88.7252 86.281 92.4705 91.1192 97.1824C86.9873 103.92 82.1542 109.847 74.2178 112.804C74.2751 112.445 74.3613 112.091 74.4755 111.747C77.5498 105.396 78.9574 98.6514 79.3623 91.5979C79.4527 90.5574 79.8698 89.5747 80.5513 88.7966C83.8127 85.259 84.5506 81.5461 82.6105 76.7449C79.2378 78.9354 77.4978 81.9497 77.4938 86.5226C75.2414 82.6347 72.0644 81.2418 67.9747 81.1079C69.0103 86.635 72.1324 89.6342 77.5452 90.3448Z" fill="#488031"/>
<path d="M76.2735 80.1001C81.0004 77.4582 81.8625 71.4821 79.5618 67.4809C75.2849 69.729 73.8038 75.426 76.2735 80.1001Z" fill="#488031"/>
<path d="M94.7397 86.9095C99.8846 86.7077 103.498 82.9034 103.811 77.5347C98.9575 77.4027 94.8694 81.5221 94.7397 86.9095Z" fill="#488031"/>
<path d="M74.4973 78.7695C74.1902 76.3255 72.9484 74.1055 71.0438 72.5957C69.1392 71.0859 66.727 70.4093 64.3355 70.714C64.834 75.7005 69.313 79.252 74.4973 78.7695Z" fill="#488031"/>
<path d="M93.8646 84.716C95.7174 79.9068 93.9466 75.4166 89.1718 72.587C86.6724 76.2613 89.0336 82.5215 93.8646 84.716Z" fill="#488031"/>
<path d="M97.2547 77.2936C102 76.2153 104.486 72.6703 104.136 67.727C99.7468 68.2337 96.7862 72.3008 97.2547 77.2936Z" fill="#488031"/>
<path d="M76.0561 59.1415C72.1597 62.1579 71.2711 66.4274 73.5683 70.6896C77.3604 68.4018 78.5261 63.1832 76.0561 59.1415Z" fill="#488031"/>
<path d="M95.9146 75.386C97.7822 71.0567 96.0491 66.4881 91.8871 64.4202C89.9408 68.3638 91.7012 73.275 95.9146 75.386Z" fill="#488031"/>
<path d="M63.5983 61.0458C63.6592 65.847 67.1242 69.4583 71.6356 69.5436C71.8276 65.1031 68.6179 61.6666 63.5983 61.0458Z" fill="#488031"/>
<path d="M93.3266 56.4435C92.4527 60.8231 93.9228 63.8729 97.5196 65.3477C99.0092 61.8227 97.1573 57.809 93.3266 56.4435Z" fill="#488031"/>
<path d="M103.652 58.8583C99.8059 60.3063 98.0006 63.6253 98.9345 67.5392C102.915 66.7365 104.792 61.799 103.652 58.8583Z" fill="#488031"/>
<path d="M72.3363 51.7912C69.2491 54.6276 68.8527 58.4507 71.2341 61.6967C74.2311 59.277 74.6932 55.4279 72.3363 51.7912Z" fill="#488031"/>
<path d="M61.9226 53.5812C62.2924 57.6305 65.0351 60.1563 69.1142 60.2336C69.2949 56.4325 65.5196 53.27 61.9226 53.5812Z" fill="#488031"/>
<path d="M65.3898 47.4452C65.7577 44.0309 64.3131 41.824 61.1738 40.8578C60.3389 43.7313 62.0227 46.4478 65.3898 47.4452Z" fill="#488031"/>
<path d="M94.2317 49.755C93.6122 53.1394 94.8879 55.4492 97.9519 56.644C98.9658 53.7796 97.5055 51.0047 94.2317 49.755Z" fill="#488031"/>
<path d="M99.59 51.3002C101.145 48.2103 100.611 45.714 98.0193 43.5865C96.2235 46.0267 96.8234 49.1455 99.59 51.3002Z" fill="#488031"/>
<path d="M68.5907 45.9213C66.3752 48.4507 66.4032 51.2718 68.5834 53.7667C70.7758 51.4894 70.811 48.5218 68.5907 45.9213Z" fill="#488031"/>
<path d="M66.3309 52.4802C65.5424 49.0138 63.7232 47.549 60.263 47.5161C60.4827 50.6504 62.7466 52.5545 66.3309 52.4802Z" fill="#488031"/>
<path d="M99.7952 58.7829C102.734 57.1287 103.661 54.8097 102.681 51.5434C99.7391 52.5996 98.4811 55.7954 99.7952 58.7829Z" fill="#488031"/>
<path d="M17.4464 99.3206C17.108 103.035 17.1926 106.564 18.5951 109.957C18.6761 110.151 18.6916 110.503 18.5794 110.616C18.4672 110.728 18.1299 110.739 17.926 110.667C16.2049 110.129 14.8582 109.017 13.6707 107.679C12.1585 105.973 11.1059 103.979 10.1823 101.899C10.0372 101.595 9.80098 101.347 9.5082 101.19C7.51994 100.181 6.64263 98.6331 6.8154 96.2201C8.52096 96.7362 9.7832 97.6789 10.3077 99.5533C11.3294 97.269 12.1437 96.4323 13.63 96.0865C14.1933 98.0643 13.3977 99.6527 10.9161 101.417C12.307 104.72 14.0661 107.712 17.4135 109.595C17.4123 109.431 17.3977 109.267 17.3699 109.104C16.4256 106.048 16.2529 102.934 16.5493 99.7522C16.5794 99.2807 16.4595 98.8119 16.2075 98.4159C14.9891 96.6038 14.9106 94.892 16.1028 92.8831C17.4621 94.1009 18.0358 95.5714 17.7281 97.6158C18.9981 96.0373 20.5124 95.6394 22.3496 95.869C21.5126 98.2663 19.914 99.386 17.4464 99.3206Z" fill="#488031"/>
<path d="M18.7086 94.8294C16.7745 93.3139 16.7936 90.5817 18.0929 88.9559C19.8525 90.2635 20.1289 92.9148 18.7086 94.8294Z" fill="#488031"/>
<path d="M9.99443 96.5681C7.70832 96.1139 6.3505 94.1577 6.5743 91.7357C8.75255 92.0202 10.3011 94.1508 9.99443 96.5681Z" fill="#488031"/>
<path d="M19.5895 94.3606C19.8922 93.2898 20.5975 92.3854 21.5511 91.8453C22.5046 91.3052 23.6286 91.1734 24.677 91.4788C24.1167 93.6725 21.8742 94.9431 19.5895 94.3606Z" fill="#488031"/>
<path d="M10.5333 95.6491C10.0306 93.3683 11.1261 91.4865 13.452 90.5595C14.3205 92.3788 12.8413 95.01 10.5333 95.6491Z" fill="#488031"/>
<path d="M9.5225 92.092C7.47452 91.2742 6.60307 89.5137 7.09401 87.3288C9.02177 87.8659 10.0698 89.8934 9.5225 92.092Z" fill="#488031"/>
<path d="M20.2239 85.4785C21.7614 87.1025 21.8696 89.0739 20.5543 90.8165C19.0141 89.5255 18.8462 87.1104 20.2239 85.4785Z" fill="#488031"/>
<path d="M10.2476 91.3333C9.70581 89.266 10.7897 87.3465 12.7901 86.7166C13.3931 88.6171 12.2738 90.6878 10.2476 91.3333Z" fill="#488031"/>
<path d="M25.6639 87.2101C25.3117 89.3519 23.5184 90.721 21.4961 90.4399C21.7108 88.4414 23.3782 87.1324 25.6639 87.2101Z" fill="#488031"/>
<path d="M12.6873 83.0493C12.7815 85.0688 11.9179 86.328 10.2103 86.7328C9.7831 85.0517 10.8826 83.3886 12.6873 83.0493Z" fill="#488031"/>
<path d="M7.906 83.398C9.52718 84.3173 10.1095 85.9287 9.42711 87.6121C7.70232 86.9717 7.19748 84.6318 7.906 83.398Z" fill="#488031"/>
<path d="M22.3857 82.4562C23.5737 83.9425 23.4921 85.6795 22.2079 86.9619C21.0321 85.6683 21.086 83.915 22.3857 82.4562Z" fill="#488031"/>
<path d="M26.9158 83.9938C26.4764 85.7776 25.0795 86.7126 23.2509 86.4585C23.4274 84.7467 25.329 83.6002 26.9158 83.9938Z" fill="#488031"/>
<path d="M25.784 81.0051C25.8506 79.4528 26.6458 78.5686 28.1144 78.3588C28.2931 79.7024 27.3566 80.7975 25.784 81.0051Z" fill="#488031"/>
<path d="M12.7355 79.9964C12.7833 81.553 12.0567 82.4952 10.6063 82.8125C10.3469 81.4604 11.1875 80.3233 12.7355 79.9964Z" fill="#488031"/>
<path d="M10.2341 80.308C9.7483 78.8168 10.1559 77.7387 11.4584 76.9711C12.0959 78.1889 11.6166 79.5406 10.2341 80.308Z" fill="#488031"/>
<path d="M24.4568 80.0962C25.2759 81.3836 25.0724 82.6426 23.929 83.6036C23.1032 82.4305 23.2883 81.1015 24.4568 80.0962Z" fill="#488031"/>
<path d="M25.0235 83.1882C25.6106 81.6945 26.5229 81.1684 28.0718 81.3986C27.7615 82.784 26.6206 83.475 25.0235 83.1882Z" fill="#488031"/>
<path d="M9.63748 83.6379C8.4357 82.6905 8.17853 81.5884 8.8376 80.1977C10.0811 80.8779 10.4271 82.3955 9.63748 83.6379Z" fill="#488031"/>
<path d="M37.8653 95.2128C36.1056 101.054 33.8189 106.344 29.6197 110.585C29.3783 110.827 29.1394 111.35 29.2405 111.592C29.3415 111.835 29.8458 112.066 30.1986 112.088C33.1338 112.374 35.8534 111.551 38.4702 110.284C41.8038 108.668 44.6174 106.322 47.2885 103.762C47.6939 103.395 48.2034 103.171 48.7426 103.121C52.3711 102.863 54.6463 101.08 55.8607 97.3158C52.9622 97.0068 50.4741 97.6272 48.5333 100.13C48.3834 96.0176 47.6622 94.23 45.6229 92.7558C43.56 95.3907 43.7933 98.3047 46.4723 102.563C42.3451 106.676 37.8511 110.082 31.6301 110.793C31.7327 110.545 31.8552 110.305 31.9964 110.078C35.296 106.053 37.4626 101.447 38.9598 96.44C39.2027 95.7068 39.671 95.0736 40.2949 94.635C43.2483 92.6701 44.4144 90.128 43.8379 86.3235C41.0345 87.2984 39.2661 89.1584 38.4816 92.451C37.524 89.2485 35.4741 87.6776 32.5516 86.8505C32.3527 91.016 34.0885 93.7339 37.8653 95.2128Z" fill="#488031"/>
<path d="M38.6987 87.6073C42.5545 86.5493 44.1969 82.3996 43.2239 79.1068C39.7594 79.9617 37.7191 83.7999 38.6987 87.6073Z" fill="#488031"/>
<path d="M50.8319 95.8092C54.5717 96.5832 57.8245 94.4891 58.9671 90.6785C55.4946 89.7162 51.8462 91.9524 50.8319 95.8092Z" fill="#488031"/>
<path d="M37.646 86.3313C37.8426 84.5163 37.3277 82.6956 36.2141 81.268C35.1006 79.8403 33.479 78.922 31.7046 78.7141C31.2113 82.3943 33.8299 85.7524 37.646 86.3313Z" fill="#488031"/>
<path d="M50.5765 94.0741C52.7329 90.9416 52.2251 87.3914 49.27 84.5004C46.8419 86.6999 47.4724 91.6303 50.5765 94.0741Z" fill="#488031"/>
<path d="M54.2919 89.3356C57.8934 89.4068 60.29 87.2981 60.883 83.6755C57.6352 83.2561 54.8079 85.6561 54.2919 89.3356Z" fill="#488031"/>
<path d="M42.1251 72.4733C38.8034 73.9495 37.4337 76.8655 38.3595 80.3455C41.4816 79.3755 43.2131 75.8255 42.1251 72.4733Z" fill="#488031"/>
<path d="M53.651 87.7226C55.736 84.9385 55.2688 81.3385 52.6249 79.1056C50.5491 81.5979 50.9775 85.4494 53.651 87.7226Z" fill="#488031"/>
<path d="M32.8287 71.6188C32.052 75.0874 33.9301 78.3073 37.1646 79.1749C38.0618 76.0113 36.3377 72.9628 32.8287 71.6188Z" fill="#488031"/>
<path d="M55.0227 73.6171C53.6448 76.6151 54.1822 79.0742 56.5205 80.7791C58.1958 78.5066 57.5481 75.2851 55.0227 73.6171Z" fill="#488031"/>
<path d="M62.0494 77.2016C59.032 77.5572 57.1645 79.6249 57.1681 82.6105C60.1718 82.7436 62.3676 79.5231 62.0494 77.2016Z" fill="#488031"/>
<path d="M40.7034 66.5156C37.9952 68.0067 37.0562 70.6892 38.2165 73.4525C40.7884 72.2454 41.7792 69.5559 40.7034 66.5156Z" fill="#488031"/>
<path d="M32.8969 65.9455C32.471 68.9278 34.0146 71.237 36.939 72.0215C37.7189 69.3164 35.5406 66.3642 32.8969 65.9455Z" fill="#488031"/>
<path d="M36.4435 62.1455C37.2921 59.7524 36.6289 57.9049 34.5332 56.648C33.4407 58.5683 34.1891 60.8256 36.4435 62.1455Z" fill="#488031"/>
<path d="M56.8164 68.9638C55.7917 71.2904 56.3157 73.1819 58.3181 74.5899C59.5379 72.7081 58.9605 70.4488 56.8164 68.9638Z" fill="#488031"/>
<path d="M60.4148 71.0325C62.0627 69.085 62.1049 67.1918 60.6021 65.1965C58.8917 66.633 58.7906 68.9863 60.4148 71.0325Z" fill="#488031"/>
<path d="M39.0084 61.6202C36.9805 63.0459 36.5185 65.0826 37.6622 67.269C39.6304 66.0207 40.163 63.8897 39.0084 61.6202Z" fill="#488031"/>
<path d="M36.2586 65.9389C36.2832 63.3016 35.2234 61.9216 32.7371 61.2796C32.3596 63.5761 33.6646 65.352 36.2586 65.9389Z" fill="#488031"/>
<path d="M59.2816 76.459C61.681 75.7929 62.7446 74.2883 62.5972 71.7609C60.2981 71.9958 58.8458 74.0726 59.2816 76.459Z" fill="#488031"/>
<path d="M-7.24458 98.217C-7.66214 102.8 -7.55774 107.154 -5.82734 111.339C-5.7275 111.579 -5.70831 112.013 -5.84674 112.152C-5.98516 112.291 -6.40129 112.304 -6.65285 112.215C-8.77634 111.552 -10.4378 110.18 -11.9029 108.529C-13.7687 106.424 -15.0674 103.964 -16.2068 101.398C-16.3859 101.023 -16.6773 100.717 -17.0385 100.524C-19.4915 99.2781 -20.5739 97.3687 -20.3608 94.3916C-18.2565 95.0284 -16.6992 96.1915 -16.0521 98.504C-14.7916 95.6857 -13.7869 94.6535 -11.9532 94.2268C-11.2581 96.667 -12.2398 98.6266 -15.3015 100.803C-13.5855 104.879 -11.415 108.57 -7.28515 110.893C-7.28672 110.69 -7.30472 110.488 -7.33896 110.288C-8.50403 106.517 -8.71712 102.675 -8.35138 98.7494C-8.31431 98.1677 -8.46227 97.5894 -8.77316 97.1007C-10.2763 94.8651 -10.3732 92.753 -8.90234 90.2746C-7.22524 91.777 -6.51738 93.5913 -6.89705 96.1136C-5.3302 94.1661 -3.46183 93.6752 -1.19521 93.9585C-2.22789 96.9162 -4.20016 98.2977 -7.24458 98.217Z" fill="#488031"/>
<path d="M-4.59479 92.1014C-4.22132 90.7804 -3.35107 89.6645 -2.17463 88.9981C-0.998178 88.3318 0.388597 88.1692 1.68203 88.546C0.990722 91.2525 -1.776 92.8201 -4.59479 92.1014Z" fill="#488031"/>
<path d="M2.89655 83.2783C2.462 85.9207 0.249514 87.6098 -2.2456 87.263C-1.98065 84.7974 0.0764389 83.1824 2.89655 83.2783Z" fill="#488031"/>
<path d="M-1.14991 77.41C0.315795 79.2438 0.215163 81.3868 -1.36926 82.969C-2.81996 81.373 -2.75339 79.2098 -1.14991 77.41Z" fill="#488031"/>
<path d="M4.4432 79.3078C3.90115 81.5087 2.17764 82.6622 -0.0783957 82.3487C0.139362 80.2367 2.48551 78.8222 4.4432 79.3078Z" fill="#488031"/>
<path d="M3.04514 75.6199C3.12735 73.7049 4.10835 72.6139 5.92031 72.3551C6.14082 74.0127 4.98532 75.3639 3.04514 75.6199Z" fill="#488031"/>
<path d="M1.40453 74.5001C2.41515 76.0884 2.16411 77.6418 0.753382 78.8274C-0.265518 77.3801 -0.0370965 75.7404 1.40453 74.5001Z" fill="#488031"/>
<path d="M2.10532 78.3142C2.82963 76.4714 3.95523 75.8223 5.86623 76.1063C5.48331 77.8156 4.07578 78.6681 2.10532 78.3142Z" fill="#488031"/>
</g>
<defs>
<clipPath id="clip0_1392_45913">
<path d="M0 0H375V94H0V0Z" fill="white"/>
</clipPath>
</defs>
</svg>
